<svg xmlns="http://www.w3.org/2000/svg" xmlns:xlink="http://www.w3.org/1999/xlink" width="80.75" height="80.75" viewBox="0 0 80.75 80.75"><defs><radialGradient id="a" cx="0.065" cy="0.978" r="1.27" gradientTransform="translate(0)" gradientUnits="objectBoundingBox"><stop offset="0.09" stop-color="#fa8f21"/><stop offset="0.78" stop-color="#d82d7e"/></radialGradient><radialGradient id="b" cx="0.693" cy="0.946" r="1.117" gradientTransform="translate(0)" gradientUnits="objectBoundingBox"><stop offset="0.64" stop-color="#8c3aaa" stop-opacity="0"/><stop offset="1" stop-color="#8c3aaa"/></radialGradient></defs><path d="M20.476,80.464A27.186,27.186,0,0,1,11.33,78.77a15.3,15.3,0,0,1-5.664-3.684,15.185,15.185,0,0,1-3.684-5.661A27.186,27.186,0,0,1,.288,60.278C.048,55.087,0,53.53,0,40.378s.053-14.707.286-19.9A27.339,27.339,0,0,1,1.98,11.33,15.361,15.361,0,0,1,5.664,5.664,15.2,15.2,0,0,1,11.328,1.98,27.186,27.186,0,0,1,20.474.286C25.667.048,27.227,0,40.374,0s14.707.053,19.9.286A27.34,27.34,0,0,1,69.422,1.98a15.243,15.243,0,0,1,5.664,3.684,15.253,15.253,0,0,1,3.684,5.664,27.186,27.186,0,0,1,1.694,9.146c.238,5.2.286,6.751.286,19.9s-.048,14.707-.286,19.9a27.311,27.311,0,0,1-1.694,9.146,16.308,16.308,0,0,1-9.348,9.345,27.186,27.186,0,0,1-9.146,1.694c-5.191.238-6.751.286-19.9.286s-14.707-.046-19.9-.286" transform="translate(0)" fill="url(#a)"/><path d="M20.476,80.464A27.186,27.186,0,0,1,11.33,78.77a15.3,15.3,0,0,1-5.664-3.684,15.185,15.185,0,0,1-3.684-5.661A27.186,27.186,0,0,1,.288,60.278C.048,55.087,0,53.53,0,40.378s.053-14.707.286-19.9A27.339,27.339,0,0,1,1.98,11.33,15.361,15.361,0,0,1,5.664,5.664,15.2,15.2,0,0,1,11.328,1.98,27.186,27.186,0,0,1,20.474.286C25.667.048,27.227,0,40.374,0s14.707.053,19.9.286A27.34,27.34,0,0,1,69.422,1.98a15.243,15.243,0,0,1,5.664,3.684,15.253,15.253,0,0,1,3.684,5.664,27.186,27.186,0,0,1,1.694,9.146c.238,5.2.286,6.751.286,19.9s-.048,14.707-.286,19.9a27.311,27.311,0,0,1-1.694,9.146,16.308,16.308,0,0,1-9.348,9.345,27.186,27.186,0,0,1-9.146,1.694c-5.191.238-6.751.286-19.9.286s-14.707-.046-19.9-.286" transform="translate(0)" fill="url(#b)"/><path d="M455.692,469.281a9.92,9.92,0,1,1,9.919,9.921,9.92,9.92,0,0,1-9.919-9.921m-5.363,0A15.282,15.282,0,1,0,465.611,454a15.281,15.281,0,0,0-15.282,15.282m27.6-15.888a3.571,3.571,0,1,0,3.573-3.57h0a3.573,3.573,0,0,0-3.571,3.57m-24.339,40.112a16.448,16.448,0,0,1-5.527-1.024,9.854,9.854,0,0,1-5.649-5.647,16.434,16.434,0,0,1-1.024-5.527c-.144-3.137-.173-4.079-.173-12.027s.031-8.887.173-12.027a16.559,16.559,0,0,1,1.024-5.527,9.85,9.85,0,0,1,5.649-5.649,16.433,16.433,0,0,1,5.527-1.024c3.137-.144,4.079-.173,12.023-.173s8.887.031,12.027.174a16.555,16.555,0,0,1,5.527,1.024,9.849,9.849,0,0,1,5.649,5.649,16.436,16.436,0,0,1,1.024,5.527c.144,3.14.173,4.079.173,12.027s-.029,8.887-.173,12.027a16.513,16.513,0,0,1-1.024,5.527,9.854,9.854,0,0,1-5.649,5.647,16.434,16.434,0,0,1-5.527,1.024c-3.137.144-4.079.173-12.027.173s-8.887-.029-12.023-.173m-.246-53.806a21.825,21.825,0,0,0-7.224,1.382,15.216,15.216,0,0,0-8.7,8.7,21.828,21.828,0,0,0-1.382,7.224c-.147,3.173-.18,4.188-.18,12.27s.034,9.1.18,12.27a21.827,21.827,0,0,0,1.382,7.224,15.216,15.216,0,0,0,8.7,8.7,21.841,21.841,0,0,0,7.224,1.382c3.175.144,4.188.18,12.27.18s9.1-.034,12.27-.18a21.827,21.827,0,0,0,7.224-1.382,15.216,15.216,0,0,0,8.7-8.7,21.769,21.769,0,0,0,1.382-7.224c.144-3.176.178-4.188.178-12.27s-.034-9.1-.178-12.27a21.822,21.822,0,0,0-1.382-7.224,15.222,15.222,0,0,0-8.7-8.7,21.8,21.8,0,0,0-7.224-1.382c-3.174-.145-4.188-.18-12.269-.18s-9.1.034-12.272.18" transform="translate(-425.15 -428.73)" fill="#fff"/></svg>