<svg xmlns="http://www.w3.org/2000/svg" width="73.113" height="73.113" viewBox="0 0 73.113 73.113"><path d="M110.987,1369.15a36.557,36.557,0,1,0,36.556,36.556,36.557,36.557,0,0,0-36.556-36.556v0Zm16.765,52.724a2.277,2.277,0,0,1-3.133.759c-8.584-5.247-19.389-6.432-32.114-3.525a2.278,2.278,0,1,1-1.014-4.441c13.925-3.184,25.87-1.813,35.506,4.074a2.279,2.279,0,0,1,.755,3.134h0Zm4.474-9.952a2.851,2.851,0,0,1-3.92.938c-9.824-6.039-24.8-7.788-36.427-4.26a2.85,2.85,0,1,1-1.656-5.454c13.276-4.028,29.78-2.077,41.065,4.857a2.849,2.849,0,0,1,.939,3.918h0Zm.384-10.365c-11.784-7-31.221-7.641-42.47-4.227-1.806.548-3.793-5.995-1.985-6.544,12.913-3.92,34.38-3.163,47.944,4.89a3.419,3.419,0,0,1-3.489,5.881h0Z" transform="translate(-74.43 -1369.15)" fill="#2ebd59"/></svg>