<svg xmlns="http://www.w3.org/2000/svg" width="96.383" height="67.484" viewBox="0 0 96.383 67.484"><path d="M94.4,10.56a12.075,12.075,0,0,0-8.495-8.5C78.36,0,48.191,0,48.191,0S18.022,0,10.479,1.986A12.322,12.322,0,0,0,1.985,10.56C0,18.1,0,33.742,0,33.742S0,49.461,1.985,56.924a12.078,12.078,0,0,0,8.5,8.5c7.621,2.064,37.711,2.064,37.711,2.064s30.169,0,37.711-1.985A12.075,12.075,0,0,0,94.4,57c1.985-7.542,1.985-23.182,1.985-23.182S96.462,18.1,94.4,10.56Zm0,0" fill="red"/><path d="M204.969,131.383l25.088-14.449-25.088-14.449Zm0,0" transform="translate(-166.384 -83.192)" fill="#fff"/></svg>